<?xml version="1.0" encoding="UTF-8"?>
<svg version="1.1" xmlns="http://www.w3.org/2000/svg" width="183" height="210">
<path d="M0 0 C60.39 0 120.78 0 183 0 C183 69.3 183 138.6 183 210 C122.61 210 62.22 210 0 210 C0 140.7 0 71.4 0 0 Z " fill="#E7E7E2" transform="translate(0,0)"/>
<path d="M0 0 C1.32 0 2.64 0 4 0 C4.33 20.79 4.66 41.58 5 63 C7.97 58.545 7.97 58.545 11 54 C19.89953598 44.60604536 33.03573805 37.96428395 46 37 C47.8871875 36.8453125 47.8871875 36.8453125 49.8125 36.6875 C57.22689198 36.90196588 65.35829438 38.55962145 72.0625 41.75 C75.48317632 43.20560695 76.49235281 42.94336425 80 42 C81.66840253 41.31672331 83.33490994 40.62880971 85 39.9375 C97.75716701 35.63254747 113.80091269 36.36426669 126 42 C134.61932919 46.5449817 142.15292173 53.51761304 147 62 C147 62.66 147 63.32 147 64 C147.66 64 148.32 64 149 64 C149 56.08 149 48.16 149 40 C150.32 40.33 151.64 40.66 153 41 C153.0930421 52.77072262 153.16393782 64.54135647 153.20724869 76.31237316 C153.22804501 81.77926391 153.25621613 87.24590143 153.30175781 92.71264648 C153.34550074 97.99707307 153.3691968 103.28125742 153.37950897 108.56585121 C153.38684958 110.573101 153.40118284 112.58033886 153.42292023 114.58748436 C153.60075557 131.70249966 151.90897003 146.65744545 139.6875 159.8125 C135.89616611 163.37736041 131.628881 165.68979065 127 168 C125.9275 168.598125 124.855 169.19625 123.75 169.8125 C120.90768168 171.03986473 119.05776949 171.26980319 116 171 C116 171.66 116 172.32 116 173 C113.27948714 173.90683762 111.67266994 174.12842547 108.875 174.1328125 C108.08609375 174.13410156 107.2971875 174.13539063 106.484375 174.13671875 C105.66453125 174.13285156 104.8446875 174.12898437 104 174.125 C103.18015625 174.12886719 102.3603125 174.13273438 101.515625 174.13671875 C100.33226563 174.13478516 100.33226563 174.13478516 99.125 174.1328125 C98.40570313 174.13168457 97.68640625 174.13055664 96.9453125 174.12939453 C95 174 95 174 92 173 C92 172.34 92 171.68 92 171 C90.741875 170.979375 89.48375 170.95875 88.1875 170.9375 C78.16682587 169.77340285 71.03862764 162.5123092 64.58203125 155.33203125 C63 153 63 153 63 149 C66.6777936 149.55166904 67.98564312 150.80209378 70.25 153.6875 C76.24746189 160.82065148 84.13535468 167.03956189 93.62792969 168.36767578 C96.40863739 168.49935135 99.15453853 168.4973694 101.9375 168.4375 C102.86240234 168.44458984 103.78730469 168.45167969 104.74023438 168.45898438 C116.5141054 168.35172416 126.58287549 164.64052983 135.453125 156.84375 C141.49772843 150.67905511 144.50945522 144.20545555 147 136 C147.18103271 135.40590332 147.36206543 134.81180664 147.54858398 134.19970703 C148.12271359 131.40202844 148.11165605 128.77783497 148.09765625 125.921875 C148.09443359 124.76171875 148.09121094 123.6015625 148.08789062 122.40625 C148.07951172 121.1996875 148.07113281 119.993125 148.0625 118.75 C148.05573242 116.91695312 148.05573242 116.91695312 148.04882812 115.046875 C148.03704815 112.03120054 148.02059853 109.01562502 148 106 C147.58790283 106.6185083 147.17580566 107.2370166 146.7512207 107.87426758 C146.21070068 108.68532959 145.67018066 109.4963916 145.11328125 110.33203125 C144.57743408 111.13616455 144.04158691 111.94029785 143.48950195 112.76879883 C136.68473633 122.96200536 125.61804372 129.18339638 113.89453125 132.4609375 C102.76575684 134.53350277 90.73490445 133.49217268 80.625 128.25 C77.20546779 126.62165133 75.61195699 126.96801229 72 128 C70.948125 128.474375 69.89625 128.94875 68.8125 129.4375 C57.97169536 134.29799263 44.25749801 134.50421366 33 131 C19.95808038 125.89061582 9.60665786 117.17612203 3.78515625 104.31640625 C1.07047161 97.66011544 -0.14341234 92.24758736 -0.11352539 85.03051758 C-0.11367142 84.11324387 -0.11381744 83.19597015 -0.1139679 82.25090027 C-0.11327057 79.21541997 -0.10548656 76.18000084 -0.09765625 73.14453125 C-0.09579143 71.04131606 -0.09436783 68.93810043 -0.09336853 66.83488464 C-0.08954839 61.29630334 -0.07972237 55.7577482 -0.06866455 50.21917725 C-0.05843964 44.56864781 -0.05386859 38.91811415 -0.04882812 33.26757812 C-0.03809968 22.17837391 -0.02102926 11.08918913 0 0 Z " fill="#6B6B66" transform="translate(15,17)"/>
<path d="M0 0 C9.86208745 7.64491743 16.11796007 17.52979085 18.39453125 29.83203125 C19.97678492 42.4461091 16.50200952 52.89919689 9.18359375 63.16796875 C2.78481765 71.12816869 -5.56664163 76.10939669 -15.42578125 78.56640625 C-17.32031692 78.9035265 -17.32031692 78.9035265 -18.32421875 80.07421875 C-27.88871731 80.80240898 -40.49929377 80.97331349 -48.72265625 75.46875 C-49.25117187 75.00855469 -49.7796875 74.54835938 -50.32421875 74.07421875 C-49.67195313 73.54054688 -49.0196875 73.006875 -48.34765625 72.45703125 C-38.25486958 63.85285619 -31.44893127 53.57076899 -30.32421875 40.07421875 C-29.55829087 26.90399538 -32.56995006 16.85634474 -40.32421875 6.07421875 C-43.14792812 3.15623609 -46.11000785 0.55229518 -49.32421875 -1.92578125 C-37.08999519 -14.16000481 -12.46870761 -8.41240952 0 0 Z " fill="#E8E8E4" transform="translate(145.32421875,65.92578125)"/>
<path d="M0 0 C0.69963867 0.00080566 1.39927734 0.00161133 2.12011719 0.00244141 C9.01954084 0.08400622 14.96804186 0.94556187 21.125 4.1875 C21.125 4.8475 21.125 5.5075 21.125 6.1875 C19.515625 7.73828125 19.515625 7.73828125 17.375 9.5 C9.14264674 16.56043654 3.07885899 26.23053146 1.90478516 37.25537109 C1.78556067 39.48743462 1.74523815 41.70228557 1.75 43.9375 C1.75161133 44.72737305 1.75322266 45.51724609 1.75488281 46.33105469 C2.07052092 61.46311674 10.58899228 72.07293259 21.125 82.1875 C10.249953 88.3221419 -3.76722758 89.18518652 -15.765625 85.9375 C-27.82798222 81.64866188 -36.55337596 74.34236572 -42.875 63.1875 C-48.42738714 51.37844062 -48.38960674 39.38906255 -44.12890625 27.15625 C-39.57258698 16.36870281 -31.35123434 8.32678477 -20.875 3.1875 C-14.10758414 0.50873122 -7.22517773 -0.00870503 0 0 Z " fill="#E6E6E1" transform="translate(65.875,58.8125)"/>
<path d="M0 0 C7.25094342 2.99686169 13.14264023 10.75694057 16.234375 17.72265625 C17.21126753 20.39849232 18.10681196 23.07648178 18.9375 25.80078125 C19.4325 27.28578125 19.4325 27.28578125 19.9375 28.80078125 C20.9277013 42.37796445 17.83469043 52.69915393 9.9375 63.80078125 C7.21855547 66.8689053 4.53837485 69.7967608 0.9375 71.80078125 C-4.46166524 71.49579024 -7.4816783 68.57173508 -11.0625 64.80078125 C-13.35286858 61.94327378 -15.25504987 58.98335194 -17.0625 55.80078125 C-17.47886719 55.08535156 -17.89523438 54.36992188 -18.32421875 53.6328125 C-22.90470173 44.29505596 -22.71293174 31.57866442 -19.5 21.80078125 C-16.67631556 15.34098386 -8.4280937 -0.81407723 0 0 Z " fill="#E7E7E3" transform="translate(92.0625,66.19921875)"/>
<path d="M0 0 C1.32 0 2.64 0 4 0 C4.33 20.79 4.66 41.58 5 63 C7.97 58.545 7.97 58.545 11 54 C19.89953598 44.60604536 33.03573805 37.96428395 46 37 C47.8871875 36.8453125 47.8871875 36.8453125 49.8125 36.6875 C57.22689198 36.90196588 65.35829438 38.55962145 72.0625 41.75 C75.48317632 43.20560695 76.49235281 42.94336425 80 42 C81.66840253 41.31672331 83.33490994 40.62880971 85 39.9375 C97.75716701 35.63254747 113.80091269 36.36426669 126 42 C132.55823882 45.45816649 138.27317955 50.28144883 143 56 C143 56.66 143 57.32 143 58 C141.68 58.33 140.36 58.66 139 59 C138.236875 57.989375 137.47375 56.97875 136.6875 55.9375 C130.43743404 48.68742349 121.49674478 43.42321788 112 42 C101.42405682 41.3376682 91.23503353 41.17826039 82 47 C82.56847656 47.43828125 83.13695313 47.8765625 83.72265625 48.328125 C92.64330695 55.65527048 99.09167642 65.46252073 101 77 C101.43666197 83.41810701 101.15002472 89.67486405 100 96 C99.67 96 99.34 96 99 96 C98.67 92.04 98.34 88.08 98 84 C97.67 84 97.34 84 97 84 C96.76925781 82.9378125 96.53851563 81.875625 96.30078125 80.78125 C93.80428371 69.67304286 93.80428371 69.67304286 88 60 C87.50113281 59.36578125 87.00226563 58.7315625 86.48828125 58.078125 C82.75080453 53.45468003 82.75080453 53.45468003 78 50 C72.77525032 50.72777179 69.43971407 54.2400146 66 58 C59.00122137 68.08206122 56.75412077 76.91422245 56 89 C55.67 89 55.34 89 55 89 C54.67 87.02 54.34 85.04 54 83 C54.26217439 90.51129631 55.31856502 96.84273974 58.16015625 103.8203125 C59 106 59 106 59 108 C58.34 108 57.68 108 57 108 C56.35004703 106.58521865 55.70521278 105.16808513 55.0625 103.75 C54.70285156 102.96109375 54.34320313 102.1721875 53.97265625 101.359375 C49.4305776 90.34164204 51.10517352 76.72946505 55.515625 65.98828125 C57.57353445 61.8453846 59.86838876 58.39636098 63 55 C63.61617187 54.32839844 64.23234375 53.65679687 64.8671875 52.96484375 C68.2104633 49.47590656 68.2104633 49.47590656 70 48 C70.66 48 71.32 48 72 48 C72 47.34 72 46.68 72 46 C71.39671875 45.86722656 70.7934375 45.73445313 70.171875 45.59765625 C69.37265625 45.42105469 68.5734375 45.24445312 67.75 45.0625 C66.96109375 44.88847656 66.1721875 44.71445312 65.359375 44.53515625 C63.95645809 44.21694496 62.55942491 43.86545879 61.18359375 43.4453125 C47.83212822 40.72247338 33.92882227 43.56379152 22.5 50.6875 C16.81960731 54.59398166 12.3338768 59.17833753 9.375 65.4375 C8.694375 66.7059375 8.694375 66.7059375 8 68 C5.525 68.495 5.525 68.495 3 69 C3 58.44 3 47.88 3 37 C2.34 37 1.68 37 1 37 C1.33 38.32 1.66 39.64 2 41 C1.01 41.495 1.01 41.495 0 42 C0 28.14 0 14.28 0 0 Z " fill="#6F6F6B" transform="translate(15,17)"/>
<path d="M0 0 C0.66 0 1.32 0 2 0 C2 10.56 2 21.12 2 32 C3.32 31.67 4.64 31.34 6 31 C5.7834375 31.94746094 5.7834375 31.94746094 5.5625 32.9140625 C2.75561459 46.44169078 2.59751427 59.07654598 9.91796875 71.16796875 C16.96110831 81.20288441 25.61171365 88.13286182 37.7890625 90.5546875 C47.94318422 91.96292336 58.3267358 91.59245587 68 88 C68.66 87.34 69.32 86.68 70 86 C69.39671875 85.48050781 68.7934375 84.96101563 68.171875 84.42578125 C57.03795733 74.71054019 57.03795733 74.71054019 56 67 C55.51838502 65.61845304 55.01643122 64.24391336 54.5 62.875 C52.62060246 57.44048593 51.81156719 51.75168725 52 46 C52.66 45.34 53.32 44.68 54 44 C54.14695313 45.08796875 54.29390625 46.1759375 54.4453125 47.296875 C56.3462247 60.16142678 59.86580812 71.89138563 69.9375 80.875 C72.71714935 83.282833 72.71714935 83.282833 75.44921875 82.8046875 C82.15899512 80.68797397 86.27178559 75.10175986 89.75 69.25 C93.97955474 60.9747842 95.45357147 52.09607342 97 43 C97.33 43 97.66 43 98 43 C98.91764594 57.60950601 98.47615234 67.15656476 88.671875 78.75390625 C82.47143886 85.31363918 82.47143886 85.31363918 78 86 C80.31881505 88.67901932 82.31814468 89.66204403 85.6875 90.6875 C86.49574219 90.93886719 87.30398437 91.19023437 88.13671875 91.44921875 C88.75160156 91.63097656 89.36648437 91.81273437 90 92 C90 92.33 90 92.66 90 93 C86.01594103 93.23904354 83.535428 93.27317755 79.9375 91.4375 C76.29763502 89.65628948 74.85508264 89.89854782 71 91 C69.948125 91.474375 68.89625 91.94875 67.8125 92.4375 C56.97169536 97.29799263 43.25749801 97.50421366 32 94 C18.95808038 88.89061582 8.60665786 80.17612203 2.78515625 67.31640625 C0.67779995 62.14925859 -1.12443318 57.59043304 -1.12939453 51.96533203 C-1.13254669 50.94061798 -1.13569885 49.91590393 -1.13894653 48.86013794 C-1.1369223 47.75387054 -1.13489807 46.64760315 -1.1328125 45.5078125 C-1.13376923 44.36972137 -1.13472595 43.23163025 -1.13571167 42.05905151 C-1.13639263 39.64988144 -1.1345442 37.24070953 -1.13037109 34.83154297 C-1.12503154 31.1467678 -1.13031388 27.46211507 -1.13671875 23.77734375 C-1.13605776 21.43749973 -1.13477617 19.09765579 -1.1328125 16.7578125 C-1.13483673 15.65559357 -1.13686096 14.55337463 -1.13894653 13.41775513 C-1.13579437 12.38673676 -1.13264221 11.35571838 -1.12939453 10.29345703 C-1.12859894 9.38983429 -1.12780334 8.48621155 -1.12698364 7.5552063 C-0.99744137 4.94851439 -0.57650179 2.54216583 0 0 Z " fill="#5D5D58" transform="translate(16,54)"/>
<path d="M0 0 C0.99 0.495 0.99 0.495 2 1 C0.36367842 13.75202336 -5.42803456 24.40734456 -15 33 C-17.88509946 34.98053032 -20.83213206 36.52685158 -24 38 C-25.0725 38.598125 -26.145 39.19625 -27.25 39.8125 C-30.09231832 41.03986473 -31.94223051 41.26980319 -35 41 C-35 41.66 -35 42.32 -35 43 C-37.72051286 43.90683762 -39.32733006 44.12842547 -42.125 44.1328125 C-42.91390625 44.13410156 -43.7028125 44.13539063 -44.515625 44.13671875 C-45.33546875 44.13285156 -46.1553125 44.12898438 -47 44.125 C-48.22976562 44.13080078 -48.22976562 44.13080078 -49.484375 44.13671875 C-50.66773437 44.13478516 -50.66773437 44.13478516 -51.875 44.1328125 C-52.59429687 44.13168457 -53.31359375 44.13055664 -54.0546875 44.12939453 C-56 44 -56 44 -59 43 C-59 42.34 -59 41.68 -59 41 C-60.258125 40.979375 -61.51625 40.95875 -62.8125 40.9375 C-72.83317413 39.77340285 -79.96137236 32.5123092 -86.41796875 25.33203125 C-88 23 -88 23 -88 19 C-84.3222064 19.55166904 -83.01435688 20.80209378 -80.75 23.6875 C-74.75253811 30.82065148 -66.86464532 37.03956189 -57.37207031 38.36767578 C-54.59136261 38.49935135 -51.84546147 38.4973694 -49.0625 38.4375 C-48.13759766 38.44458984 -47.21269531 38.45167969 -46.25976562 38.45898438 C-34.4858946 38.35172416 -24.41712451 34.64052983 -15.546875 26.84375 C-9.4952017 20.67184478 -6.55546595 14.19290088 -4 6 C-3.34 6 -2.68 6 -2 6 C-1.34 4.02 -0.68 2.04 0 0 Z " fill="#706F6B" transform="translate(166,147)"/>
<path d="M0 0 C2.1875 -0.375 2.1875 -0.375 5 0 C6.1753612 1.3768517 7.34021994 2.76516608 8.4296875 4.2109375 C15.02150386 11.72101684 24.28780691 15.68309246 34 17 C41.71905301 17.28589085 49.36813453 17.24601885 57 16 C57 16.66 57 17.32 57 18 C57.99 18.33 58.98 18.66 60 19 C44.07845149 22.90484693 30.76776017 23.63265632 15.97265625 15.84375 C9.35924894 11.74187319 3.7693402 6.85225104 0 0 Z " fill="#686964" transform="translate(23,128)"/>
<path d="M0 0 C3.6777936 0.55166904 4.98564312 1.80209378 7.25 4.6875 C17.70295442 17.11984367 29.51571472 19.64890278 45 21 C45.495 22.485 45.495 22.485 46 24 C32.28328969 24.67829886 19.85466625 22.92937377 9 14 C5.7101343 10.88278032 2.54964083 7.75835945 0 4 C0 2.68 0 1.36 0 0 Z " fill="#70706C" transform="translate(78,166)"/>
<path d="M0 0 C0.78503906 0.27714844 1.57007812 0.55429688 2.37890625 0.83984375 C15.49620871 5.3624965 28.83264972 7.44855874 42 2 C42.99 2.99 43.98 3.98 45 5 C32.28335286 10.59532474 20.60923319 11.58643322 7 8 C7.66 7.34 8.32 6.68 9 6 C4.545 4.02 4.545 4.02 0 2 C0 1.34 0 0.68 0 0 Z " fill="#74746F" transform="translate(94,140)"/>
<path d="M0 0 C3.65316671 1.24976756 4.78065836 1.67098753 7 5 C7.165 6.03125 7.33 7.0625 7.5 8.125 C7.665 9.07375 7.83 10.0225 8 11 C8.66 11.33 9.32 11.66 10 12 C11.91184156 17.97197153 12.33699207 23.50941951 12.3125 29.75 C12.32861328 30.58660156 12.34472656 31.42320313 12.36132812 32.28515625 C12.36618741 38.37870516 12.36618741 38.37870516 10.48046875 41.578125 C9.99191406 42.04734375 9.50335938 42.5165625 9 43 C8.96261719 41.76765625 8.92523438 40.5353125 8.88671875 39.265625 C8.43060786 26.88296621 7.77421467 15.58924271 0.98828125 4.83984375 C0 3 0 3 0 0 Z " fill="#5C5C58" transform="translate(155,74)"/>
<path d="M0 0 C0.33 0 0.66 0 1 0 C1.14695312 1.08796875 1.29390625 2.1759375 1.4453125 3.296875 C3.60668259 17.92409311 8.08485358 29.61999112 20 39 C20.99 39.66 21.98 40.32 23 41 C21.35 41.66 19.7 42.32 18 43 C16.41224451 41.60919892 14.82999061 40.21211596 13.25 38.8125 C11.92742187 37.64654297 11.92742187 37.64654297 10.578125 36.45703125 C5.9795031 32.07440523 3.84613167 29.28554958 3 23 C2.51838502 21.61845304 2.01643122 20.24391336 1.5 18.875 C-0.4034653 13.3978719 -0.96390642 7.78399674 -1 2 C-0.67 1.34 -0.34 0.68 0 0 Z " fill="#696864" transform="translate(69,98)"/>
<path d="M0 0 C0.33 0 0.66 0 1 0 C1.92346794 3.77645833 2.12887286 7.36999033 2.23974609 11.23193359 C2.55820466 21.43329438 3.67274736 30.64802651 10 39 C10 39.66 10 40.32 10 41 C8.35 41 6.7 41 5 41 C0.32950642 33.36520791 -0.86693521 26.87439824 -1 18 C-1.02707031 16.83082031 -1.05414063 15.66164063 -1.08203125 14.45703125 C-1.14394607 9.47570287 -1.12825614 4.87120112 0 0 Z " fill="#60605B" transform="translate(17,87)"/>
<path d="M0 0 C10.3203831 6.83557841 17.54310977 16.32599472 20.625 28.4609375 C21.67567502 35.57488297 21.28308424 42.94303666 20 50 C19.67 50 19.34 50 19 50 C18.67 46.04 18.34 42.08 18 38 C17.67 38 17.34 38 17 38 C16.63659714 36.23103898 16.28459117 34.45973374 15.9375 32.6875 C15.64166016 31.20830078 15.64166016 31.20830078 15.33984375 29.69921875 C15 27 15 27 16 24 C14.79033496 21.04802923 14.79033496 21.04802923 13.0625 17.9375 C10 12.18223235 10 12.18223235 10 10 C9.46375 9.773125 8.9275 9.54625 8.375 9.3125 C5.15069671 7.53064818 2.70350705 5.51917702 0 3 C0 2.01 0 1.02 0 0 Z " fill="#8E8E8A" transform="translate(95,63)"/>
<path d="M0 0 C0.33 0 0.66 0 1 0 C1 10.56 1 21.12 1 32 C0.01 32.495 0.01 32.495 -1 33 C-1.72693904 34.97888961 -2.39816251 36.97954558 -3 39 C-3.33 39 -3.66 39 -4 39 C-3.76349642 33.92734031 -3.51500402 28.85546412 -3.25537109 23.78393555 C-3.16873489 22.05851228 -3.08538001 20.33292101 -3.00537109 18.60717773 C-2.88981149 16.12692629 -2.76247261 13.64751807 -2.6328125 11.16796875 C-2.59938751 10.39599655 -2.56596252 9.62402435 -2.53152466 8.82865906 C-2.32455719 5.09031249 -2.12099913 3.1814987 0 0 Z " fill="#63625E" transform="translate(167,116)"/>
<path d="M0 0 C1.32 0 2.64 0 4 0 C4.02925502 3.68748309 4.04688418 7.37493592 4.0625 11.0625 C4.07087891 12.10083984 4.07925781 13.13917969 4.08789062 14.20898438 C4.10496442 19.58723069 3.95415152 24.70333211 3 30 C2.67 29.01 2.34 28.02 2 27 C1.34 27 0.68 27 0 27 C0 18.09 0 9.18 0 0 Z " fill="#666661" transform="translate(15,17)"/>
<path d="M0 0 C0.66 0.33 1.32 0.66 2 1 C0.86274159 9.86277242 -2.07809204 19.90458851 -9 26 C-9.33 25.01 -9.66 24.02 -10 23 C-10.66 22.67 -11.32 22.34 -12 22 C-11.34064453 21.46439453 -11.34064453 21.46439453 -10.66796875 20.91796875 C-8.38893858 18.29735092 -7.50352623 15.5636797 -6.3125 12.3125 C-5.87550781 11.13300781 -5.43851563 9.95351562 -4.98828125 8.73828125 C-4.66214844 7.83464844 -4.33601562 6.93101562 -4 6 C-3.34 6 -2.68 6 -2 6 C-1.34 4.02 -0.68 2.04 0 0 Z " fill="#7D7C78" transform="translate(166,147)"/>
<path d="M0 0 C2.1875 -0.375 2.1875 -0.375 5 0 C6.17138293 1.37219143 7.33206513 2.75648516 8.41015625 4.203125 C12.20448804 8.49155897 17.57691839 12.19230613 23 14 C23.33 14.99 23.66 15.98 24 17 C14.80737896 16.60882464 8.57047004 10.91470942 2.3125 4.61328125 C1 3 1 3 0 0 Z " fill="#62625E" transform="translate(23,128)"/>
<path d="M0 0 C-2.64828106 8.18559601 -8.62233263 13.05230079 -16 17 C-19.5625 17.875 -19.5625 17.875 -22 18 C-22 17.01 -22 16.02 -22 15 C-19.734375 13.3515625 -19.734375 13.3515625 -16.75 11.625 C-12.53230678 9.18141583 -9.93480213 6.88130758 -7 3 C-2.65517241 0 -2.65517241 0 0 0 Z " fill="#666561" transform="translate(160,126)"/>
<path d="M0 0 C-0.33 0.99 -0.66 1.98 -1 3 C-0.01 3.66 0.98 4.32 2 5 C0.34484375 4.75443359 0.34484375 4.75443359 -1.34375 4.50390625 C-6.40223315 3.87159586 -11.40936048 3.8894053 -16.5 3.9375 C-17.87671875 3.94426758 -17.87671875 3.94426758 -19.28125 3.95117188 C-21.52090391 3.96283674 -23.76041545 3.97920386 -26 4 C-22.55549263 1.70366176 -20.06187717 1.45983515 -16 1 C-18.97 1 -21.94 1 -25 1 C-25 0.34 -25 -0.32 -25 -1 C-16.22214962 -2.75557008 -8.66258801 -1.783474 0 0 Z " fill="#8C8D89" transform="translate(80,56)"/>
<path d="M0 0 C1.134375 0.47050781 2.26875 0.94101563 3.4375 1.42578125 C7.92862884 3.10995457 12.24607756 3.73847266 17 4.1875 C17.77472656 4.26935547 18.54945312 4.35121094 19.34765625 4.43554688 C21.23080183 4.63316092 23.11528577 4.81795374 25 5 C25.33 5.99 25.66 6.98 26 8 C16.26285699 8.48150707 3.73084003 8.76448503 -4 2 C-2.68 2 -1.36 2 0 2 C0 1.34 0 0.68 0 0 Z " fill="#61605C" transform="translate(98,182)"/>
<path d="M0 0 C0.99 0 1.98 0 3 0 C4.16306443 3.54950034 3.92365049 6.55823948 3.5625 10.25 C3.46066406 11.32765625 3.35882813 12.4053125 3.25390625 13.515625 C3.17011719 14.33546875 3.08632812 15.1553125 3 16 C2.67 16 2.34 16 2 16 C1.67 14.02 1.34 12.04 1 10 C1.26217439 17.51129631 2.31856502 23.84273974 5.16015625 30.8203125 C6 33 6 33 6 35 C5.34 35 4.68 35 4 35 C3.35004703 33.58521865 2.70521278 32.16808513 2.0625 30.75 C1.70285156 29.96109375 1.34320313 29.1721875 0.97265625 28.359375 C-0.49709119 24.79420451 -1.12667133 21.66564627 -1.1328125 17.8125 C-1.13410156 17.03132813 -1.13539062 16.25015625 -1.13671875 15.4453125 C-1.13285156 14.63835937 -1.12898438 13.83140625 -1.125 13 C-1.12886719 12.19304687 -1.13273437 11.38609375 -1.13671875 10.5546875 C-1.13542969 9.77351563 -1.13414063 8.99234375 -1.1328125 8.1875 C-1.13168457 7.47980469 -1.13055664 6.77210937 -1.12939453 6.04296875 C-0.99511502 3.92287267 -0.57716498 2.04042437 0 0 Z " fill="#6D6E69" transform="translate(68,90)"/>
<path d="M0 0 C0 0.66 0 1.32 0 2 C-1.62850055 3.08067776 -3.30547522 4.08860872 -5 5.0625 C-11.59808787 9.13528878 -16.71433037 14.02248668 -20.59375 20.7734375 C-21.0578125 21.50820312 -21.521875 22.24296875 -22 23 C-22.66 23 -23.32 23 -24 23 C-23.16574965 17.32709763 -21.41626843 12.83078196 -16.78515625 9.296875 C-15.55349883 8.43458336 -14.31229982 7.58577945 -13.0625 6.75 C-12.44181641 6.316875 -11.82113281 5.88375 -11.18164062 5.4375 C-3.30230035 0 -3.30230035 0 0 0 Z " fill="#676863" transform="translate(45,61)"/>
<path d="M0 0 C2 3 2 3 2 5 C7.445 6.98 7.445 6.98 13 9 C13 9.33 13 9.66 13 10 C9.01594103 10.23904354 6.535428 10.27317755 2.9375 8.4375 C-0.67999143 6.66723824 -2.14711994 7.05643754 -6 8 C-8.33257494 8.33859959 -10.66574212 8.6732039 -13 9 C-12 6 -12 6 -9.27734375 4.39453125 C-8.17519531 3.87246094 -7.07304688 3.35039062 -5.9375 2.8125 C-4.83277344 2.28269531 -3.72804688 1.75289062 -2.58984375 1.20703125 C-1.73519531 0.80871094 -0.88054687 0.41039062 0 0 Z " fill="#565652" transform="translate(93,137)"/>
<path d="M0 0 C0.66 0.99 1.32 1.98 2 3 C0.97519531 3.19335938 -0.04960938 3.38671875 -1.10546875 3.5859375 C-2.46619601 3.84869863 -3.82687033 4.11173398 -5.1875 4.375 C-5.86103516 4.50132813 -6.53457031 4.62765625 -7.22851562 4.7578125 C-11.0141239 5.49646777 -14.47612869 6.42623223 -18 8 C-18 7.34 -18 6.68 -18 6 C-18.99 5.67 -19.98 5.34 -21 5 C-19.58521865 4.35004703 -18.16808513 3.70521278 -16.75 3.0625 C-15.96109375 2.70285156 -15.1721875 2.34320313 -14.359375 1.97265625 C-9.44692939 -0.05250759 -5.28214298 -0.34078342 0 0 Z " fill="#898A85" transform="translate(115,55)"/>
<path d="M0 0 C0.33 0 0.66 0 1 0 C1.14695312 1.08796875 1.29390625 2.1759375 1.4453125 3.296875 C2.73866776 12.01806901 4.39898356 19.00111952 8.890625 26.6796875 C10 29 10 29 9 32 C1.78672675 23.64859835 -1.2535829 12.958404 -1 2 C-0.67 1.34 -0.34 0.68 0 0 Z " fill="#545450" transform="translate(69,98)"/>
<path d="M0 0 C0.99 0.33 1.98 0.66 3 1 C3.08733513 4.08315385 3.14050127 7.16598827 3.1875 10.25 C3.21263672 11.12269531 3.23777344 11.99539062 3.26367188 12.89453125 C3.27333984 13.73886719 3.28300781 14.58320312 3.29296875 15.453125 C3.3086792 16.22817383 3.32438965 17.00322266 3.34057617 17.80175781 C3 20 3 20 0 24 C0 16.08 0 8.16 0 0 Z " fill="#44443F" transform="translate(164,93)"/>
<path d="M0 0 C1.32 0.66 2.64 1.32 4 2 C1.69 6.62 -0.62 11.24 -3 16 C-3.99 15.67 -4.98 15.34 -6 15 C-5.48640535 9.8640535 -3.7815677 3.7815677 0 0 Z " fill="#5B5B57" transform="translate(75,76)"/>
<path d="M0 0 C0.33 0 0.66 0 1 0 C1.76636091 3.46089679 2.17149371 6.76077488 2.31640625 10.30078125 C2.35830078 11.27724609 2.40019531 12.25371094 2.44335938 13.25976562 C2.48267578 14.26716797 2.52199219 15.27457031 2.5625 16.3125 C2.62727539 17.85260742 2.62727539 17.85260742 2.69335938 19.42382812 C2.79906825 21.94909569 2.90116468 24.47445562 3 27 C-0.96486191 21.95791765 -1.13980679 17.8373064 -1.125 11.5 C-1.12757812 10.3965625 -1.13015625 9.293125 -1.1328125 8.15625 C-1.01325821 5.31507756 -0.64925815 2.76192358 0 0 Z " fill="#41413C" transform="translate(17,87)"/>
<path d="M0 0 C4.62 0 9.24 0 14 0 C14 0.66 14 1.32 14 2 C14.99 2.66 15.98 3.32 17 4 C12.96103843 5.34632052 9.2287853 5.18417548 5 5.1875 C3.77023438 5.20586914 3.77023438 5.20586914 2.515625 5.22460938 C1.72671875 5.22654297 0.9378125 5.22847656 0.125 5.23046875 C-0.59429687 5.23457764 -1.31359375 5.23868652 -2.0546875 5.24291992 C-4 5 -4 5 -7 3 C-1.72 3 3.56 3 9 3 C9 2.34 9 1.68 9 1 C6.03 1 3.06 1 0 1 C0 0.67 0 0.34 0 0 Z " fill="#B5B4B0" transform="translate(114,186)"/>
<path d="M0 0 C0.33 0 0.66 0 1 0 C1 4.95 1 9.9 1 15 C0.34 15 -0.32 15 -1 15 C-1 18.63 -1 22.26 -1 26 C-1.33 26 -1.66 26 -2 26 C-2.05799124 22.22923111 -2.09359306 18.45857666 -2.125 14.6875 C-2.14175781 13.61564453 -2.15851563 12.54378906 -2.17578125 11.43945312 C-2.18222656 10.41142578 -2.18867188 9.38339844 -2.1953125 8.32421875 C-2.20578613 7.37635498 -2.21625977 6.42849121 -2.22705078 5.4519043 C-2 3 -2 3 0 0 Z " fill="#565752" transform="translate(167,116)"/>
<path d="M0 0 C0.99 0.33 1.98 0.66 3 1 C3 1.99 3 2.98 3 4 C3.99 4 4.98 4 6 4 C6.09507063 10.43311296 6.15316726 16.65758005 5 23 C4.67 23 4.34 23 4 23 C3.67 19.04 3.34 15.08 3 11 C2.67 11 2.34 11 2 11 C1.34 7.37 0.68 3.74 0 0 Z " fill="#80817C" transform="translate(110,90)"/>
<path d="M0 0 C0.66 0.33 1.32 0.66 2 1 C1.74476126 2.62752231 1.47025506 4.25203196 1.1875 5.875 C1.03667969 6.77992188 0.88585937 7.68484375 0.73046875 8.6171875 C0 11 0 11 -3 13 C-4.19232613 15.05003955 -4.19232613 15.05003955 -5 17 C-5.33 17 -5.66 17 -6 17 C-5.25 9.375 -5.25 9.375 -3 6 C-2.31731862 4.67479497 -1.6492959 3.34187818 -1 2 C-0.67 1.34 -0.34 0.68 0 0 Z " fill="#696863" transform="translate(166,147)"/>
<path d="M0 0 C0.33 0 0.66 0 1 0 C1.33 6.93 1.66 13.86 2 21 C3.485 18.525 3.485 18.525 5 16 C6 19 6 19 4.5625 22.1875 C4.046875 23.115625 3.53125 24.04375 3 25 C3.66 25.33 4.32 25.66 5 26 C3.35 26.33 1.7 26.66 0 27 C0 18.09 0 9.18 0 0 Z " fill="#989792" transform="translate(18,59)"/>
<path d="M0 0 C0 0.33 0 0.66 0 1 C-1.65 1 -3.3 1 -5 1 C-5.33 1.66 -5.66 2.32 -6 3 C-7.27208622 2.37755401 -8.54261882 1.75193233 -9.8125 1.125 C-10.52019531 0.77695312 -11.22789063 0.42890625 -11.95703125 0.0703125 C-14 -1 -14 -1 -17 -3 C-10.87110073 -5.12154206 -5.55040567 -2.55318661 0 0 Z " fill="#747571" transform="translate(93,61)"/>
<path d="M0 0 C8.07861415 -0.09579384 15.98340366 -0.12513633 24 1 C24 1.33 24 1.66 24 2 C22.87722656 2.06058594 21.75445312 2.12117188 20.59765625 2.18359375 C13.03659035 2.60294982 5.5161559 3.04339834 -2 4 C-1.34 2.68 -0.68 1.36 0 0 Z " fill="#63635F" transform="translate(50,56)"/>
<path d="M0 0 C1.32 0.33 2.64 0.66 4 1 C4 7.6 4 14.2 4 21 C3.34 21 2.68 21 2 21 C1.83201949 18.72926348 1.66565887 16.45840707 1.5 14.1875 C1.4071875 12.92292969 1.314375 11.65835938 1.21875 10.35546875 C1.08085219 8.24021483 1 6.11974408 1 4 C0.6937566 2.66018514 0.36548445 1.32488113 0 0 Z " fill="#787873" transform="translate(164,57)"/>
<path d="M0 0 C-1.39134418 4.42700422 -3.47884142 6.99413292 -7 10 C-7.99 10 -8.98 10 -10 10 C-9.17213394 5.99864737 -7.98465625 3.66464297 -4.5 1.3125 C-2 0 -2 0 0 0 Z " fill="#5B5A56" transform="translate(160,126)"/>
<path d="M0 0 C0.75 1.75 0.75 1.75 1 4 C-1.18771055 7.06279477 -2.56114062 7.89872476 -6.25 8.75 C-7.61125 8.87375 -7.61125 8.87375 -9 9 C-4 0 -4 0 0 0 Z " fill="#666560" transform="translate(156,170)"/>
<path d="M0 0 C0.33 0 0.66 0 1 0 C1 9.24 1 18.48 1 28 C0.67 28 0.34 28 0 28 C0 21.07 0 14.14 0 7 C-1.98 7.99 -1.98 7.99 -4 9 C-2.80100302 5.9168649 -1.52299523 2.93720508 0 0 Z " fill="#D3D3CE" transform="translate(163,121)"/>
<path d="M0 0 C0 0.66 0 1.32 0 2 C-2.23046875 3.69140625 -2.23046875 3.69140625 -5.1875 5.5625 C-6.15042969 6.18253906 -7.11335938 6.80257812 -8.10546875 7.44140625 C-10.83595315 8.91166708 -12.949475 9.59289154 -16 10 C-12.15364338 5.6573393 -6.12239358 0 0 0 Z " fill="#61615D" transform="translate(45,61)"/>
<path d="M0 0 C0.33 0 0.66 0 1 0 C1 1.65 1 3.3 1 5 C1.99 5 2.98 5 4 5 C4 7.64 4 10.28 4 13 C2.5 11.6875 2.5 11.6875 1 10 C1 9.01 1 8.02 1 7 C0.01 6.67 -0.98 6.34 -2 6 C-2 4.68 -2 3.36 -2 2 C-1.34 2 -0.68 2 0 2 C0 1.34 0 0.68 0 0 Z " fill="#797A76" transform="translate(164,79)"/>
<path d="M0 0 C4.1666604 0.47348414 6.92884715 1.04696841 10 4 C10 4.66 10 5.32 10 6 C3.52443609 5.38909774 3.52443609 5.38909774 1.0625 3.5625 C0 2 0 2 0 0 Z " fill="#565652" transform="translate(88,178)"/>
<path d="M0 0 C2.61943903 2.61943903 3.44197838 5.57473973 4.625 9 C4.85445313 9.64195313 5.08390625 10.28390625 5.3203125 10.9453125 C7 15.72442336 7 15.72442336 7 18 C6.34 18 5.68 18 5 18 C1.90787824 11.91643021 0.43300764 6.81987029 0 0 Z " fill="#80817C" transform="translate(67,107)"/>
<path d="M0 0 C0.99 0.33 1.98 0.66 3 1 C3.99 1 4.98 1 6 1 C3.22719294 4.08089673 0.93673644 5.68775452 -3 7 C-3.33 5.68 -3.66 4.36 -4 3 C-2.1875 1.4375 -2.1875 1.4375 0 0 Z " fill="#7C7A76" transform="translate(146,177)"/>
<path d="M0 0 C3 1 3 1 4.203125 2.7421875 C4.54859375 3.44601563 4.8940625 4.14984375 5.25 4.875 C5.60578125 5.57367188 5.9615625 6.27234375 6.328125 6.9921875 C7 9 7 9 6 12 C0 4.8 0 4.8 0 0 Z " fill="#5D5D59" transform="translate(72,118)"/>
<path d="M0 0 C5.65020618 0.60108576 10.66164461 2.07528683 16 4 C16 4.33 16 4.66 16 5 C9.741346 5.5326514 5.54891215 3.81849506 0 1 C0 0.67 0 0.34 0 0 Z " fill="#5D5D58" transform="translate(90,142)"/>
<path d="M0 0 C0.99 0.33 1.98 0.66 3 1 C-0.625 6.875 -0.625 6.875 -4 8 C-4.33 6.68 -4.66 5.36 -5 4 C-2.6875 1.9375 -2.6875 1.9375 0 0 Z " fill="#5D5C58" transform="translate(99,132)"/>
<path d="M0 0 C4.67692308 1.47692308 4.67692308 1.47692308 6.3125 4.125 C6.539375 4.74375 6.76625 5.3625 7 6 C5.02 6.99 5.02 6.99 3 8 C0 3.375 0 3.375 0 0 Z " fill="#686964" transform="translate(155,74)"/>
<path d="M0 0 C1.875 0.3125 1.875 0.3125 4 1 C6 4 6 4 6 7 C3.13275314 6.42655063 2.1385485 6.1385485 0 4 C0 2.68 0 1.36 0 0 Z " fill="#51504D" transform="translate(78,166)"/>
<path d="M0 0 C0.66 0 1.32 0 2 0 C2.474375 0.66 2.94875 1.32 3.4375 2 C4.2109375 2.99 4.2109375 2.99 5 4 C5.99 4 6.98 4 8 4 C8.33 4.99 8.66 5.98 9 7 C8.01 8.485 8.01 8.485 7 10 C5.82739389 8.71372289 4.6620717 7.42080217 3.5 6.125 C2.8503125 5.40570313 2.200625 4.68640625 1.53125 3.9453125 C0 2 0 2 0 0 Z " fill="#6F6E6B" transform="translate(73,125)"/>
<path d="M0 0 C-0.66 3.63 -1.32 7.26 -2 11 C-3.9955516 7.00889681 -4.19546065 5.30013434 -4 1 C-2 0 -2 0 0 0 Z " fill="#676862" transform="translate(22,85)"/>
<path d="M0 0 C0.99 0 1.98 0 3 0 C2.25 5.75 2.25 5.75 0 8 C-0.66 7.67 -1.32 7.34 -2 7 C-1.125 1.125 -1.125 1.125 0 0 Z " fill="#595955" transform="translate(71,84)"/>
<path d="M0 0 C4.62 0 9.24 0 14 0 C13.67 1.32 13.34 2.64 13 4 C11.68 3.67 10.36 3.34 9 3 C9 2.34 9 1.68 9 1 C6.03 1 3.06 1 0 1 C0 0.67 0 0.34 0 0 Z " fill="#908F8C" transform="translate(114,186)"/>
<path d="M0 0 C0.66 0.33 1.32 0.66 2 1 C2 3.97 2 6.94 2 10 C1.67 10 1.34 10 1 10 C1 8.35 1 6.7 1 5 C0.34 5 -0.32 5 -1 5 C-0.67 6.32 -0.34 7.64 0 9 C-0.99 9.495 -0.99 9.495 -2 10 C-2.17942163 6.05272412 -2.09350689 3.4019487 0 0 Z " fill="#686863" transform="translate(17,49)"/>
<path d="M0 0 C1.98 0.66 3.96 1.32 6 2 C5.01 2.495 5.01 2.495 4 3 C4 3.66 4 4.32 4 5 C0.62537285 4.45276317 -1.08235 3.9451 -4 2 C-2.68 2 -1.36 2 0 2 C0 1.34 0 0.68 0 0 Z " fill="#72716D" transform="translate(98,182)"/>
<path d="M0 0 C0.66 0.33 1.32 0.66 2 1 C1.34 4.3 0.68 7.6 0 11 C-0.66 10.67 -1.32 10.34 -2 10 C-1.125 2.25 -1.125 2.25 0 0 Z " fill="#7C7B75" transform="translate(166,147)"/>
<path d="M0 0 C0.66 0.99 1.32 1.98 2 3 C1.67 3.66 1.34 4.32 1 5 C-2.0625 5.625 -2.0625 5.625 -5 6 C-5 5.01 -5 4.02 -5 3 C-2.5 1.3125 -2.5 1.3125 0 0 Z " fill="#403F3B" transform="translate(93,137)"/>
<path d="M0 0 C0.66 0 1.32 0 2 0 C2 2.31 2 4.62 2 7 C-0.49064888 7.68707555 -2.37886292 8 -5 8 C-4.21718695 6.66144944 -3.42348123 5.32926356 -2.625 4 C-2.18414062 3.2575 -1.74328125 2.515 -1.2890625 1.75 C-0.86367187 1.1725 -0.43828125 0.595 0 0 Z " fill="#797974" transform="translate(159,120)"/>
<path d="M0 0 C1 3 1 3 -0.4375 6.1875 C-1.2109375 7.5796875 -1.2109375 7.5796875 -2 9 C-1.34 9.33 -0.68 9.66 0 10 C-1.65 10.33 -3.3 10.66 -5 11 C-5 10.01 -5 9.02 -5 8 C-4.34 8 -3.68 8 -3 8 C-2.87625 7.236875 -2.7525 6.47375 -2.625 5.6875 C-2 3 -2 3 0 0 Z " fill="#82837E" transform="translate(23,75)"/>
<path d="M0 0 C2.625 0.375 2.625 0.375 5 1 C3.35 2.65 1.7 4.3 0 6 C-0.66 4.68 -1.32 3.36 -2 2 C-1.34 1.34 -0.68 0.68 0 0 Z " fill="#6E6F6B" transform="translate(85,65)"/>
<path d="M0 0 C1.32 0 2.64 0 4 0 C4.33 0.99 4.66 1.98 5 3 C1.04 3 -2.92 3 -7 3 C-7 2.67 -7 2.34 -7 2 C-4.69 2 -2.38 2 0 2 C0 1.34 0 0.68 0 0 Z " fill="#6D6B68" transform="translate(119,187)"/>
<path d="M0 0 C0.93065133 2.60582371 1.14917407 3.64198224 0.0625 6.25 C-0.4634375 7.11625 -0.4634375 7.11625 -1 8 C-1.33 7.01 -1.66 6.02 -2 5 C-2.66 4.67 -3.32 4.34 -4 4 C-2.68 2.68 -1.36 1.36 0 0 Z " fill="#74736F" transform="translate(158,165)"/>
<path d="M0 0 C4.875 4.625 4.875 4.625 6 8 C4.125 7.75 4.125 7.75 2 7 C0.27898465 4.41847698 0 3.15081975 0 0 Z " fill="#4C4D48" transform="translate(21,120)"/>
<path d="M0 0 C1.98 0 3.96 0 6 0 C6 0.66 6 1.32 6 2 C1.545 2.495 1.545 2.495 -3 3 C-2.01 2.67 -1.02 2.34 0 2 C0 1.34 0 0.68 0 0 Z " fill="#5E5D59" transform="translate(128,186)"/>
<path d="M0 0 C0.66 0 1.32 0 2 0 C4.09230769 4.43076923 4.09230769 4.43076923 3.625 7.3125 C3.41875 7.869375 3.2125 8.42625 3 9 C0 3.375 0 3.375 0 0 Z " fill="#5B5C58" transform="translate(108,82)"/>
<path d="M0 0 C1.0625 1.8125 1.0625 1.8125 2 4 C1.67 4.99 1.34 5.98 1 7 C0.96125079 8.66621616 0.9549714 10.33394172 1 12 C-1.09440189 8.59659693 -1.25797575 5.95562822 -1 2 C-0.67 1.34 -0.34 0.68 0 0 Z " fill="#63635E" transform="translate(165,59)"/>
<path d="M0 0 C1.65 0 3.3 0 5 0 C4.34 0.66 3.68 1.32 3 2 C3.33 2.66 3.66 3.32 4 4 C2.02 4 0.04 4 -2 4 C-1.34 2.68 -0.68 1.36 0 0 Z " fill="#6D6E6A" transform="translate(50,56)"/>
<path d="M0 0 C0.99 0.33 1.98 0.66 3 1 C2.67 3.31 2.34 5.62 2 8 C0 6 0 6 -0.125 2.875 C-0.08375 1.92625 -0.0425 0.9775 0 0 Z " fill="#3A3935" transform="translate(164,93)"/>
<path d="M0 0 C0.99 0 1.98 0 3 0 C3.33 0.99 3.66 1.98 4 3 C3.34 3.66 2.68 4.32 2 5 C1.01 4.67 0.02 4.34 -1 4 C-0.67 2.68 -0.34 1.36 0 0 Z " fill="#6D6E69" transform="translate(72,80)"/>
<path d="M0 0 C1.7074998 1.28062485 3.37373596 2.61767557 5 4 C5 4.66 5 5.32 5 6 C3.68 6.33 2.36 6.66 1 7 C0.67 4.69 0.34 2.38 0 0 Z " fill="#7C7C78" transform="translate(153,69)"/>
<path d="M0 0 C0.66 0 1.32 0 2 0 C2 0.66 2 1.32 2 2 C2.66 2.66 3.32 3.32 4 4 C2.02 4.33 0.04 4.66 -2 5 C-1.34 3.35 -0.68 1.7 0 0 Z " fill="#80807C" transform="translate(47,57)"/>
<path d="M0 0 C-0.33 0.66 -0.66 1.32 -1 2 C-3.64860427 2.59355614 -6.29197322 2.74209269 -9 3 C-6.38997624 -0.48003168 -4.1689578 -0.27793052 0 0 Z " fill="#5D5E59" transform="translate(108,57)"/>
</svg>
